<?xml version="1.0" standalone="no"?>
<!DOCTYPE svg PUBLIC "-//W3C//DTD SVG 20010904//EN"
 "http://www.w3.org/TR/2001/REC-SVG-20010904/DTD/svg10.dtd">
<svg version="1.0" xmlns="http://www.w3.org/2000/svg"
 width="512.000000pt" height="512.000000pt" viewBox="0 0 512.000000 512.000000"
 preserveAspectRatio="xMidYMid meet">

<g transform="translate(0.000000,512.000000) scale(0.100000,-0.100000)"
fill="#000000" stroke="none">
<path d="M2795 5091 c-58 -26 -105 -84 -150 -185 -80 -179 -109 -230 -139
-245 -25 -12 -49 -12 -170 3 -174 20 -209 20 -274 1 -68 -21 -117 -76 -133
-154 -10 -46 -9 -84 6 -212 27 -244 23 -250 -173 -254 -128 -2 -207 -16 -330
-56 -90 -30 -115 -77 -71 -133 24 -31 64 -34 130 -10 132 46 330 58 475 29
291 -60 545 -275 657 -555 l26 -65 -77 -40 c-158 -82 -306 -213 -400 -355
l-43 -64 -87 -3 c-301 -8 -570 -188 -696 -465 -33 -73 -66 -184 -66 -226 l0
-22 -276 0 c-215 0 -291 3 -347 16 -290 64 -498 320 -500 614 0 114 17 188 65
290 53 111 168 230 273 283 116 58 166 69 309 71 148 2 133 -6 216 126 24 39
86 113 137 163 103 102 113 128 68 172 -32 33 -63 31 -111 -3 -56 -41 -175
-171 -220 -241 l-39 -61 -80 0 c-310 -1 -609 -211 -721 -506 -53 -141 -67
-288 -40 -426 35 -176 98 -292 230 -423 75 -75 107 -99 186 -138 160 -80 206
-87 547 -87 226 0 294 -3 297 -12 2 -7 13 -52 24 -101 64 -273 264 -484 547
-578 70 -24 70 -24 705 -27 349 -1 645 0 658 3 52 13 58 108 9 133 -15 8 -206
13 -642 14 l-620 3 -82 28 c-280 94 -458 355 -440 646 10 158 61 279 164 391
76 82 165 140 270 177 67 23 95 28 198 29 66 0 129 4 140 7 11 4 40 41 65 83
54 92 169 218 256 280 86 61 214 120 320 145 123 30 315 30 429 0 162 -43 318
-135 431 -253 136 -142 222 -321 249 -517 10 -72 26 -86 121 -100 161 -24 292
-117 362 -260 36 -74 37 -77 37 -195 0 -119 -1 -122 -37 -199 -43 -89 -114
-166 -194 -209 -94 -51 -151 -58 -480 -58 -290 0 -302 -1 -328 -21 -34 -27
-36 -79 -4 -109 21 -19 34 -20 348 -20 362 0 390 4 516 65 82 40 187 132 237
207 79 122 118 281 99 409 -10 69 -10 73 14 104 44 58 50 123 30 309 -16 140
-16 168 -5 192 15 30 62 57 245 139 101 45 159 92 185 150 39 85 14 163 -100
317 -146 196 -146 192 1 388 93 124 122 193 114 264 -11 97 -71 150 -262 232
-145 61 -179 84 -188 121 -3 16 2 101 11 189 21 204 13 257 -51 320 -63 64
-116 72 -320 51 -88 -9 -174 -14 -189 -10 -37 7 -65 50 -121 184 -84 202 -148
269 -258 269 -52 0 -134 -41 -240 -119 -59 -44 -120 -87 -137 -95 -64 -34 -86
-24 -293 126 -118 86 -194 105 -273 69z m108 -145 c18 -7 79 -48 137 -91 144
-106 190 -128 265 -128 75 0 141 32 275 133 52 40 110 79 128 87 61 25 71 11
172 -220 54 -125 111 -190 183 -212 64 -19 106 -19 266 1 83 10 140 12 162 7
48 -13 54 -47 35 -204 -20 -160 -20 -202 -1 -266 11 -36 28 -62 59 -91 51 -47
67 -56 211 -117 209 -90 211 -97 75 -275 -101 -134 -133 -200 -133 -275 0 -75
25 -127 130 -268 42 -56 82 -117 90 -135 25 -59 24 -60 -249 -185 -105 -49
-164 -104 -184 -176 -17 -56 -16 -114 4 -293 l8 -66 -58 63 c-32 35 -86 81
-121 102 -58 37 -78 47 -150 73 l-29 10 55 59 c283 307 383 795 246 1205 -259
775 -1181 1090 -1864 638 -95 -63 -246 -210 -312 -304 l-54 -78 -37 16 c-20 9
-55 22 -77 30 -22 8 -45 16 -52 18 -8 4 -8 15 3 43 17 49 17 129 -1 279 -18
156 -11 190 43 198 20 4 91 0 157 -9 151 -19 199 -19 262 0 65 19 123 81 168
178 18 40 50 109 71 155 21 46 47 90 58 98 25 17 20 17 59 0z m624 -590 c432
-93 758 -426 844 -861 18 -90 18 -310 0 -400 -17 -85 -63 -220 -101 -295 -29
-57 -106 -169 -157 -229 l-29 -34 -32 89 c-120 337 -393 582 -750 675 -132 35
-355 36 -488 3 -17 -4 -23 0 -28 23 -14 56 -96 212 -154 289 -56 76 -214 234
-233 234 -42 0 88 168 211 273 144 122 318 202 530 242 92 18 285 13 387 -9z"/>
<path d="M3211 4044 c-24 -30 -29 -106 -10 -147 21 -47 80 -56 122 -19 26 23
24 145 -3 172 -30 30 -83 27 -109 -6z"/>
<path d="M3682 4047 c-18 -19 -22 -35 -22 -84 0 -78 21 -107 75 -107 55 0 75
29 75 108 0 52 -4 66 -23 84 -31 29 -77 29 -105 -1z"/>
<path d="M3396 3619 c-46 -36 -32 -108 25 -128 39 -14 152 -14 198 -1 63 18
81 81 36 125 -22 23 -31 25 -128 25 -90 0 -108 -3 -131 -21z"/>
<path d="M1896 1117 c-24 -25 -26 -32 -26 -127 0 -55 -3 -100 -6 -100 -3 0
-43 20 -88 45 -46 25 -94 45 -108 45 -33 0 -68 -39 -68 -76 0 -37 23 -59 113
-108 37 -21 67 -41 67 -45 0 -4 -30 -24 -67 -46 -93 -53 -113 -72 -113 -110 0
-38 35 -75 71 -75 13 0 60 20 103 45 44 25 83 45 88 45 4 0 8 -44 8 -98 0
-107 10 -135 55 -146 27 -7 62 7 82 33 8 10 12 54 13 118 l0 103 84 -50 c95
-56 126 -61 161 -25 50 49 31 89 -68 146 -109 63 -107 56 -20 106 87 49 113
74 113 110 0 32 -42 73 -75 73 -14 0 -61 -20 -104 -45 -43 -25 -81 -45 -84
-45 -4 0 -7 45 -7 99 0 112 -11 136 -67 147 -26 5 -37 1 -57 -19z"/>
<path d="M4326 1119 c-25 -20 -26 -24 -26 -125 0 -57 -4 -104 -8 -104 -5 0
-44 20 -88 45 -43 25 -91 45 -106 45 -62 0 -92 -85 -45 -127 12 -11 52 -37 90
-57 37 -21 67 -41 67 -45 0 -4 -30 -24 -67 -45 -92 -52 -113 -73 -113 -111 0
-38 35 -75 71 -75 13 0 59 20 103 45 43 25 82 45 87 45 5 0 9 -47 9 -103 0
-86 3 -106 18 -119 41 -37 100 -28 121 19 6 13 11 64 11 113 0 50 3 90 7 90 3
0 41 -20 84 -45 90 -52 120 -55 156 -19 20 20 24 31 19 56 -8 43 -14 48 -105
99 -45 24 -81 46 -81 49 1 3 39 27 86 54 108 61 129 102 79 151 -35 36 -69 31
-155 -20 -41 -25 -78 -45 -82 -45 -5 0 -8 40 -8 90 0 99 -10 132 -47 149 -34
16 -47 14 -77 -10z"/>
<path d="M679 761 c-22 -17 -24 -29 -29 -124 l-5 -105 -85 49 c-47 27 -93 49
-103 49 -10 0 -32 -14 -49 -30 -24 -25 -29 -36 -23 -58 10 -39 18 -46 106 -97
43 -25 79 -47 79 -49 0 -3 -36 -25 -79 -50 -113 -65 -133 -99 -88 -152 34 -39
69 -35 162 19 l80 46 5 -105 c5 -96 7 -108 29 -125 30 -25 76 -24 101 1 17 17
20 33 20 125 0 58 3 105 7 105 3 0 42 -21 86 -47 44 -26 92 -46 108 -46 42 0
69 29 69 73 0 43 -8 51 -107 110 -40 23 -73 44 -73 46 0 2 36 25 81 51 86 50
99 65 99 112 0 32 -38 71 -69 71 -9 0 -56 -22 -104 -50 -48 -27 -89 -50 -92
-50 -3 0 -5 47 -5 105 0 92 -3 108 -20 125 -25 25 -71 26 -101 1z"/>
<path d="M3101 754 c-18 -23 -21 -41 -21 -126 l0 -100 -52 32 c-114 67 -133
74 -166 61 -18 -8 -36 -25 -43 -43 -19 -45 2 -74 93 -128 43 -25 78 -49 78
-54 1 -4 -34 -29 -77 -55 -43 -25 -84 -58 -93 -74 -13 -24 -13 -30 0 -55 9
-15 28 -33 43 -40 30 -14 53 -6 175 65 l42 25 0 -102 c0 -94 2 -103 25 -125
30 -31 73 -32 103 -5 20 19 22 31 22 125 0 58 2 105 5 105 3 0 42 -21 87 -47
47 -27 93 -46 111 -46 54 0 87 72 54 117 -7 10 -50 39 -95 65 l-82 47 77 44
c97 55 113 71 113 114 0 36 -36 76 -69 76 -9 0 -56 -23 -105 -50 -49 -28 -91
-50 -93 -50 -1 0 -3 47 -3 105 0 92 -3 108 -20 125 -30 30 -83 27 -109 -6z"/>
</g>
</svg>
